<svg style="height:0;position:absolute;width:0">
  <defs>
    <symbol id="icon-eye" class="r1" viewBox="0 0 22 14">
      <path fill-rule="evenodd"
            d="M11 0c7.84 0 11 7 11 7s-3.6 7-11 7C3.839 14 0 7 0 7s3.436-7 11-7zm0 2a5 5 0 1 1-5 5 5 5 0 0 1 5-5zm0 2a3 3 0 1 1-3 3 3 3 0 0 1 3-3z"/>
    </symbol>
    <symbol id="icon-like" viewBox="0 0 341 329">
      <path
        d="M177.96 0h3.89c12.41 1.17 23.12 9.01 30.4 18.78 12.67 16.89 18.79 38.67 16.47 59.68-1.74 11.81-3.65 23.6-5.41 35.41 26.22.09 52.43-.01 78.64.05 15.37.34 30.02 11.16 34.29 26.02 3.24 10.81.78 22.96-6.13 31.83 6.39 6.38 10.09 15.02 10.89 23.98v3.59c-.87 11.61-7.18 22.64-17.15 28.77 3.88 10.2 3.58 22.17-1.98 31.7-3.74 6.85-9.96 12.02-16.96 15.3 3.4 13.89-2.38 29.54-14.22 37.64-6.01 4.22-13.35 6.64-20.73 6.45-40.98-.03-81.96.01-122.94-.02-12.65-.42-25.19-5.02-34.98-13.09-.18 5.07.87 10.57-1.88 15.16-2.25 4.46-7 6.98-11.78 7.75h-84.6c-7.14-.76-13-6.63-13.78-13.75V157.54c.77-7.07 6.66-13.47 13.98-13.6 27.66-.09 55.33 0 83-.05 4.02-.17 8 1.53 10.81 4.37 2.38 2.27 3.27 5.52 4.66 8.4.97-1.43 1.95-2.86 2.79-4.37 13.87-25.8 27.81-51.56 41.69-77.35 3-5.16 2.34-11.29 1.98-16.98-1.31-15.86-2.4-31.73-3.67-47.59C161.5 4.59 169.45.83 177.96 0m-7.99 17.15c1.22 14.98 2.43 29.95 3.4 44.94.56 6.69-.67 13.53-3.84 19.47-14.01 25.96-28 51.92-42 77.89-2.9 7.14-10.3 10.57-15.43 15.89.04 38.11-.01 76.22.03 114.34 6.74 2.49 11.41 8.34 17.98 11.12 6.23 2.76 13.05 4.44 19.89 4.21 39.64-.03 79.29-.04 118.93 0 12.99 1.18 24.76-11.66 22.45-24.48-.79-5.67-4.24-10.4-6.63-15.46 5.61-1.42 11.75-1.24 16.82-4.34 7.22-4 11.53-12.48 10.56-20.67-.28-7.61-6.07-13.14-10.26-18.92 5.99-2.21 12.8-3.07 17.63-7.61 7.76-6.72 9.5-19.16 3.71-27.67-3.8-6.29-11.01-8.84-16.98-12.5 3.28-2.45 6.6-4.86 9.77-7.46 5.93-4.98 8.74-13.4 6.87-20.94-1.89-7.69-8.38-13.84-15.93-15.97-3.51-1.19-7.26-.91-10.91-.93-29.75 0-59.51.01-89.26-.01 2.52-17.32 5.38-34.6 7.9-51.92 1.52-14.44-2.1-29.14-9.02-41.81-4.33-7.63-10.17-15.04-18.48-18.52-5.53-2.39-12.07-1.72-17.2 1.35M14.48 158.37c.08 52.03-.04 104.06.06 156.09 27.68.08 55.36.04 83.04.01.08-52.06.05-104.12.02-156.18-27.71-.01-55.42-.17-83.12.08z"/>
      <path
        d="M14.48 158.37c27.7-.25 55.41-.09 83.12-.08.03 52.06.06 104.12-.02 156.18-27.68.03-55.36.07-83.04-.01-.1-52.03.02-104.06-.06-156.09z"/>
    </symbol>
    <symbol id="icon-bookmark" viewBox="5 3 32 32">
      <path fill-rule="evenodd"
            d="M26 29H8.99420208C7.34331198 29 6 27.6570978 6 26.0005439V6.5C6 5.10966206 7.115964 4 8.49257535 4H26v1h-.5046844C24.6771088 5 24 5.67157288 24 6.5c0 .83420277.6694756 1.5 1.4953156 1.5H26v21zM25 9v19H11V9h4v11l3-3 3 3V9h4zM10 28H8.9950893C7.8926228 28 7 27.1085295 7 26.008845V8.50171426C7.41635634 8.81463236 7.9332434 9 8.49257535 9H10v19zM8.49336625 5C7.66860285 5 7 5.66579723 7 6.5 7 7.32842712 7.66725546 8 8.49336625 8H23.5s-.5-.78951547-.5-1.5264455C23 5.73662444 23.5 5 23.5 5H8.49336625zM16 9v8.5999756l2-2 2 2V9h-4z"/>
    </symbol>
    <symbol id="icon-quote-right" viewBox="0 0 30 32">
      <path
        d="M13.714 5.714v12.571q0 1.857-.723 3.545t-1.955 2.92-2.92 1.955-3.545.723H3.428q-.464 0-.804-.339t-.339-.804v-2.286q0-.464.339-.804t.804-.339h1.143q1.893 0 3.232-1.339t1.339-3.232v-.571q0-.714-.5-1.214T7.428 16h-4q-1.429 0-2.429-1t-1-2.429V5.714q0-1.429 1-2.429t2.429-1h6.857q1.429 0 2.429 1t1 2.429zm16 0v12.571q0 1.857-.723 3.545t-1.955 2.92-2.92 1.955-3.545.723h-1.143q-.464 0-.804-.339t-.339-.804v-2.286q0-.464.339-.804t.804-.339h1.143q1.893 0 3.232-1.339t1.339-3.232v-.571q0-.714-.5-1.214t-1.214-.5h-4q-1.429 0-2.429-1t-1-2.429V5.714q0-1.429 1-2.429t2.429-1h6.857q1.429 0 2.429 1t1 2.429z"/>
    </symbol>
    <symbol id="icon-underline" viewBox="0 0 171 26">
      <path
        d="M165.5 0s-27.4.3-50 3-44.9 4.9-60 7c-15.1 2.1-32.8 7-41 8-8.2 1-13.5-.4-14 2s-3.6 8.3 13 5c16.6-3.3 33.3-6.5 50-8 16.7-1.5 47.8-7.6 60-8s35.5-.9 40-1c9-.1 12-7.6 2-8z"/>
    </symbol>
    <symbol id="icon-search" viewBox="0 0 512 512">
      <path
        d="M460.475 408.443L351.4 299.37c15.95-25.137 25.2-54.923 25.2-86.833C376.601 122.914 303.687 50 214.062 50c-89.623 0-162.537 72.914-162.537 162.537s72.914 162.537 162.537 162.537c30.326 0 58.733-8.356 83.055-22.876L406.918 462l53.557-53.557zM112.117 212.537c0-56.213 45.732-101.946 101.945-101.946s101.947 45.733 101.947 101.946-45.733 101.945-101.947 101.945c-56.213 0-101.945-45.732-101.945-101.945z"/>
    </symbol>
    <symbol id="icon-envelope-o" viewBox="0 0 32 32">
      <path
        d="M29.714 26.857V13.143q-.571.643-1.232 1.179-4.786 3.679-7.607 6.036-.911.768-1.482 1.196t-1.545.866-1.83.438h-.036q-.857 0-1.83-.438t-1.545-.866-1.482-1.196q-2.821-2.357-7.607-6.036-.661-.536-1.232-1.179v13.714q0 .232.17.402t.402.17h26.286q.232 0 .402-.17t.17-.402zm0-18.768v-.438l-.009-.232-.054-.223-.098-.161-.161-.134-.25-.045H2.856q-.232 0-.402.17t-.17.402q0 3 2.625 5.071 3.446 2.714 7.161 5.661.107.089.625.527t.821.67.795.563.902.491.768.161h.036q.357 0 .768-.161t.902-.491.795-.563.821-.67.625-.527q3.714-2.946 7.161-5.661.964-.768 1.795-2.063t.83-2.348zM32 7.429v19.429q0 1.179-.839 2.018t-2.018.839H2.857q-1.179 0-2.018-.839T0 26.858V7.429Q0 6.25.839 5.411t2.018-.839h26.286q1.179 0 2.018.839T32 7.429z"/>
    </symbol>
    <symbol id="icon-close" viewBox="0 0 25 32">
      <path
        d="M23.179 23.607q0 .714-.5 1.214L20.25 27.25q-.5.5-1.214.5t-1.214-.5L12.572 22l-5.25 5.25q-.5.5-1.214.5t-1.214-.5l-2.429-2.429q-.5-.5-.5-1.214t.5-1.214l5.25-5.25-5.25-5.25q-.5-.5-.5-1.214t.5-1.214l2.429-2.429q.5-.5 1.214-.5t1.214.5l5.25 5.25 5.25-5.25q.5-.5 1.214-.5t1.214.5l2.429 2.429q.5.5.5 1.214t-.5 1.214l-5.25 5.25 5.25 5.25q.5.5.5 1.214z"/>
    </symbol>
    <symbol id="icon-angle-down" viewBox="0 0 20 20">
      <polygon points="10 14.76 1.83 6.59 3.17 5.24 10 12.07 16.83 5.24 18.17 6.59 10 14.76"/>
    </symbol>
    <symbol id="icon-wasted" viewBox="0 0 300 300">
      <path
        d="M250 87.974 c -7.358 3.264-15.267 5.469-23.566 6.461 8.471-5.078 14.978-13.119 18.041-22.701-7.929 4.703-16.71 8.117-26.057 9.957-7.484-7.975-18.148-12.957-29.95-12.957-22.66 0-41.033 18.371-41.033 41.031 0 3.216.363 6.348 1.062 9.351-34.102-1.711-64.336-18.047-84.574-42.872-3.532 6.06-5.556 13.108-5.556 20.628 0 14.236 7.244 26.795 18.254 34.153-6.726-.213-13.053-2.059-18.585-5.132-.004.171-.004.343-.004.516 0 19.88 14.144 36.464 32.915 40.234-3.443.938-7.068 1.439-10.81 1.439-2.644 0-5.214-.258-7.72-.736 5.222 16.301 20.375 28.165 38.331 28.495-14.043 11.006-31.735 17.565-50.96 17.565-3.312 0-6.578-.194-9.788-.574 18.159 11.643 39.727 18.437 62.899 18.437 75.473 0 116.746-62.524 116.746-116.747 0-1.779-.04-3.548-.119-5.309 8.017-5.784 14.973-13.011 20.474-21.239z"/>
    </symbol>
    <symbol id="icon-fb" viewBox="-1 -4 20 38">
      <path
        d="M17.125.214v4.714h-2.804q-1.536 0-2.071.643T11.714 7.5v3.375h5.232l-.696 5.286h-4.536v13.554H6.25V16.161H1.696v-5.286H6.25V6.982q0-3.321 1.857-5.152T13.053 0q2.625 0 4.071.214z"/>
    </symbol>
    <symbol id="icon-itunes" viewBox="0 0 384 512">
      <path
        d="M381.9 388.2c-6.4 27.4-27.2 42.8-55.1 48-24.5 4.5-44.9 5.6-64.5-10.2-23.9-20.1-24.2-53.4-2.7-74.4 17-16.2 40.9-19.5 76.8-25.8 6-1.1 11.2-2.5 15.6-7.4 6.4-7.2 4.4-4.1 4.4-163.2 0-11.2-5.5-14.3-17-12.3-8.2 1.4-185.7 34.6-185.7 34.6-10.2 2.2-13.4 5.2-13.4 16.7 0 234.7 1.1 223.9-2.5 239.5-4.2 18.2-15.4 31.9-30.2 39.5-16.8 9.3-47.2 13.4-63.4 10.4-43.2-8.1-58.4-58-29.1-86.6 17-16.2 40.9-19.5 76.8-25.8 6-1.1 11.2-2.5 15.6-7.4 10.1-11.5 1.8-256.6 5.2-270.2.8-5.2 3-9.6 7.1-12.9 4.2-3.5 11.8-5.5 13.4-5.5 204-38.2 228.9-43.1 232.4-43.1 11.5-.8 18.1 6 18.1 17.6.2 344.5 1.1 326-1.8 338.5z"/>
    </symbol>
    <symbol id="icon-fb-stroke" viewBox="0 0 512 512">
      <path
        d="M468.333-1H41.667C17.773-1-1 17.773-1 41.667v426.667C-1 492.227 17.773 511 41.667 511H468.334C492.227 511 511 492.227 511 468.333V41.667C511 17.773 492.227-1 468.333-1zM255 493.933V323.267h-68.267V255H255v-59.733c0-48.64 37.547-89.6 85.333-93.867h76.8v68.267h-68.267c-14.507 0-25.6 11.093-25.6 25.6V255H408.6v68.267h-85.333v170.667H255zm238.933-25.6c0 14.507-11.093 25.6-25.6 25.6h-128v-153.6h85.333v-102.4h-85.333v-42.667c0-5.12 3.413-8.533 8.533-8.533H434.2v-102.4h-94.72c-57.173 5.12-101.547 53.76-101.547 110.933v42.667h-68.267v102.4h68.267v153.6H41.667c-14.507 0-25.6-11.093-25.6-25.6V41.667c0-14.507 11.093-25.6 25.6-25.6h426.667c14.507 0 25.6 11.093 25.6 25.6v426.666z"/>
    </symbol>
    <symbol id="icon-vk" viewBox="0 0 38 35">
      <path
        d="M34.232 9.286q.411 1.143-2.679 5.25-.429.571-1.161 1.518-1.393 1.786-1.607 2.339-.304.732.25 1.446.304.375 1.446 1.464h.018l.071.071q2.518 2.339 3.411 3.946.054.089.116.223t.125.473-.009.607-.446.491-1.054.223l-4.571.071q-.429.089-1-.089t-.929-.393l-.357-.214q-.536-.375-1.25-1.143t-1.223-1.384-1.089-1.036-1.009-.277q-.054.018-.143.063t-.304.259-.384.527-.304.929-.116 1.384q0 .268-.063.491t-.134.33l-.071.089q-.321.339-.946.393h-2.054q-1.268.071-2.607-.295t-2.348-.946-1.839-1.179-1.259-1.027l-.446-.429q-.179-.179-.491-.536T6.499 21.3t-1.893-2.696-2.188-3.768-2.33-4.857q-.107-.286-.107-.482t.054-.286l.071-.107q.268-.339 1.018-.339l4.893-.036q.214.036.411.116t.286.152l.089.054q.286.196.429.571.357.893.821 1.848t.732 1.455l.286.518q.518 1.071 1 1.857t.866 1.223.741.688.607.25.482-.089q.036-.018.089-.089t.214-.393.241-.839.17-1.446 0-2.232q-.036-.714-.161-1.304t-.25-.821l-.107-.214q-.446-.607-1.518-.768-.232-.036.089-.429.304-.339.679-.536.946-.464 4.268-.429 1.464.018 2.411.232.357.089.598.241t.366.429.188.571.063.813-.018.982-.045 1.259-.027 1.473q0 .196-.018.75t-.009.857.063.723.205.696.402.438q.143.036.304.071t.464-.196.679-.616.929-1.196 1.214-1.92q1.071-1.857 1.911-4.018.071-.179.179-.313t.196-.188l.071-.054.089-.045.232-.054.357-.009 5.143-.036q.696-.089 1.143.045t.554.295z"/>
    </symbol>
    <symbol id="icon-tlg" viewBox="0 0 448 512">
      <path
        d="M446.7 98.6l-67.6 318.8c-5.1 22.5-18.4 28.1-37.3 17.5l-103-75.9-49.7 47.8c-5.5 5.5-10.1 10.1-20.7 10.1l7.4-104.9 190.9-172.5c8.3-7.4-1.8-11.5-12.9-4.1L117.8 284 16.2 252.2c-22.1-6.9-22.5-22.1 4.6-32.7L418.2 66.4c18.4-6.9 34.5 4.1 28.5 32.2z"/>
    </symbol>
    <symbol id="icon-audio" viewBox="0 0 56 43">
      <path
        d="M54.7,25.7l-.8-.7A26.2,26.2,0,0,0,28,0,26.2,26.2,0,0,0,2.1,25.1,4.7,4.7,0,0,0,0,29v5.7A4.7,4.7,0,0,0,1.3,38a4.5,4.5,0,0,0,3.2,1.4h.1a4.3,4.3,0,0,0,1.2,2.2A4.3,4.3,0,0,0,9,43a4.7,4.7,0,0,0,4.6-4.6v-13A4.7,4.7,0,0,0,9,20.7a4.4,4.4,0,0,0-3.5,1.8C7.6,13,16.8,5.8,28,5.8S48.5,13,50.5,22.5A4.1,4.1,0,0,0,47,20.7a4.7,4.7,0,0,0-4.6,4.7v13A4.7,4.7,0,0,0,47,43a4.5,4.5,0,0,0,4.4-3.6h.1A4.6,4.6,0,0,0,56,34.7V29A4.9,4.9,0,0,0,54.7,25.7Z"></path>
    </symbol>
    <symbol id="icon-bars" viewBox="0 0 27 32">
      <path
        d="M27.429 24v2.286q0 .464-.339.804t-.804.339H1.143q-.464 0-.804-.339T0 26.286V24q0-.464.339-.804t.804-.339h25.143q.464 0 .804.339t.339.804zm0-9.143v2.286q0 .464-.339.804t-.804.339H1.143q-.464 0-.804-.339T0 17.143v-2.286q0-.464.339-.804t.804-.339h25.143q.464 0 .804.339t.339.804zm0-9.143V8q0 .464-.339.804t-.804.339H1.143q-.464 0-.804-.339T0 8V5.714q0-.464.339-.804t.804-.339h25.143q.464 0 .804.339t.339.804z"/>
    </symbol>
    <symbol id="icon-messanger" viewBox="0 0 14 14">
      <path
        d="M7,0.935c-3.866,0-7,2.463-7,5.5c0,1.438,0.703,2.749,1.854,3.729 c-0.044,0.955-0.242,2.239-0.942,2.901c1.337,0,2.706-0.88,3.518-1.514c0.796,0.248,1.663,0.384,2.57,0.384c3.866,0,7-2.463,7-5.5 S10.866,0.935,7,0.935z"></path>
    </symbol>
    <symbol id="icon-refresh" viewBox="0 0 491.236 491.236">
      <path
        d="M55.89,262.818c-3-26-0.5-51.1,6.3-74.3c22.6-77.1,93.5-133.8,177.6-134.8v-50.4c0-2.8,3.5-4.3,5.8-2.6l103.7,76.2 c1.7,1.3,1.7,3.9,0,5.1l-103.6,76.2c-2.4,1.7-5.8,0.2-5.8-2.6v-50.3c-55.3,0.9-102.5,35-122.8,83.2c-7.7,18.2-11.6,38.3-10.5,59.4 c1.5,29,12.4,55.7,29.6,77.3c9.2,11.5,7,28.3-4.9,37c-11.3,8.3-27.1,6-35.8-5C74.19,330.618,59.99,298.218,55.89,262.818z M355.29,166.018c17.3,21.5,28.2,48.3,29.6,77.3c1.1,21.2-2.9,41.3-10.5,59.4c-20.3,48.2-67.5,82.4-122.8,83.2v-50.3 c0-2.8-3.5-4.3-5.8-2.6l-103.7,76.2c-1.7,1.3-1.7,3.9,0,5.1l103.6,76.2c2.4,1.7,5.8,0.2,5.8-2.6v-50.4 c84.1-0.9,155.1-57.6,177.6-134.8c6.8-23.2,9.2-48.3,6.3-74.3c-4-35.4-18.2-67.8-39.5-94.4c-8.8-11-24.5-13.3-35.8-5 C348.29,137.718,346.09,154.518,355.29,166.018z"></path>
    </symbol>
    <symbol id="icon-quote-right" viewBox="0 0 30 32">
      <path
        d="M13.714 5.714v12.571q0 1.857-.723 3.545t-1.955 2.92-2.92 1.955-3.545.723H3.428q-.464 0-.804-.339t-.339-.804v-2.286q0-.464.339-.804t.804-.339h1.143q1.893 0 3.232-1.339t1.339-3.232v-.571q0-.714-.5-1.214T7.428 16h-4q-1.429 0-2.429-1t-1-2.429V5.714q0-1.429 1-2.429t2.429-1h6.857q1.429 0 2.429 1t1 2.429zm16 0v12.571q0 1.857-.723 3.545t-1.955 2.92-2.92 1.955-3.545.723h-1.143q-.464 0-.804-.339t-.339-.804v-2.286q0-.464.339-.804t.804-.339h1.143q1.893 0 3.232-1.339t1.339-3.232v-.571q0-.714-.5-1.214t-1.214-.5h-4q-1.429 0-2.429-1t-1-2.429V5.714q0-1.429 1-2.429t2.429-1h6.857q1.429 0 2.429 1t1 2.429z"/>
    </symbol>
    <symbol id="icon-shuffle" viewBox="0 0 20 20">
      <path
        d="M7.6,12.51A5.63,5.63,0,0,1,3.41,14H0V12.24H3.41a3.92,3.92,0,0,0,3.08-1.09c.23.32.48.65.76,1Z"/>
      <path
        d="M20,6.73,16,9.06l-.27.16V7.66a8.6,8.6,0,0,0-4.92,1.27l-.07-.08q-.25-.31-.48-.63l-.1-.14a2,2,0,0,0-.15-.2l-.25-.35a10.23,10.23,0,0,1,6-1.62V4.23Z"/>
      <path
        d="M20,13.14l-4.31-2.5v1.6C12,12.16,10.53,11,9.53,9.8c-.18-.23-.35-.47-.52-.7L8.91,9l-.15-.19A5.77,5.77,0,0,0,3.41,5.91H0V7.66H3.41c2.4,0,3.1,1,4.07,2.31l.1.14c.25.34.5.68.81,1,1.1,1.29,2.93,2.76,7.3,2.84v1.64ZM7.72,9.89Z"/>
    </symbol>
    <symbol id="icon-youtube" viewBox="0 0 24 24">
      <path d="M19.615 3.184c-3.604-.246-11.631-.245-15.23 0-3.897.266-4.356 2.62-4.385 8.816.029 6.185.484 8.549 4.385 8.816 3.6.245 11.626.246 15.23 0 3.897-.266 4.356-2.62 4.385-8.816-.029-6.185-.484-8.549-4.385-8.816zm-10.615 12.816v-8l8 3.993-8 4.007z"/>
    </symbol>
    <symbol id="icon-arrow-next" viewBox="0 0 477.175 477.175">
      <path
        d="M345.441 248.292L151.154 442.573c-12.359 12.365-32.397 12.365-44.75 0-12.354-12.354-12.354-32.391 0-44.744L278.318 225.92 106.409 54.017c-12.354-12.359-12.354-32.394 0-44.748 12.354-12.359 32.391-12.359 44.75 0l194.287 194.284c6.177 6.18 9.262 14.271 9.262 22.366 0 8.099-3.091 16.196-9.267 22.373z"/>
    </symbol>
  </defs>
</svg>
