<?xml version="1.0" standalone="no"?>
<!DOCTYPE svg PUBLIC "-//W3C//DTD SVG 20010904//EN"
 "http://www.w3.org/TR/2001/REC-SVG-20010904/DTD/svg10.dtd">
<svg version="1.0" xmlns="http://www.w3.org/2000/svg"
 width="327.000000pt" height="327.000000pt" viewBox="0 0 327.000000 327.000000"
 preserveAspectRatio="xMidYMid meet">
<metadata>
Created by potrace 1.11, written by Peter Selinger 2001-2013
</metadata>
<g transform="translate(0.000000,327.000000) scale(0.100000,-0.100000)"
fill="#000000" stroke="none">
<path d="M0 1635 l0 -1635 1635 0 1635 0 0 1635 0 1635 -1635 0 -1635 0 0
-1635z m1086 490 c50 -446 93 -817 95 -824 3 -7 69 353 148 800 79 448 146
820 149 827 3 9 41 12 142 12 101 0 139 -3 142 -12 3 -7 72 -387 154 -845 82
-457 150 -830 152 -828 3 3 181 1651 182 1683 0 1 88 2 195 2 168 0 195 -2
195 -15 0 -12 -345 -2346 -377 -2547 l-6 -38 -172 0 c-129 0 -174 3 -177 13
-3 6 -68 384 -144 839 -76 456 -141 828 -144 828 -3 0 -68 -378 -144 -840
l-139 -840 -176 2 -176 3 -186 1250 c-102 688 -189 1271 -193 1298 l-7 47 197
-2 198 -3 92 -810z"/>
</g>
</svg>
