<?xml version="1.0" encoding="utf-8"?>
<!-- Generator: Adobe Illustrator 22.1.0, SVG Export Plug-In . SVG Version: 6.00 Build 0)  -->
<svg version="1.1" id="opera-map" xmlns="http://www.w3.org/2000/svg" xmlns:xlink="http://www.w3.org/1999/xlink" x="0px" y="0px"
	 viewBox="0 0 2400 1700" style="enable-background:new 0 0 2400 1700;" xml:space="preserve">
<style type="text/css">
	.st0{fill:#FD7921;}
</style>
<path id="opera-right-3" class="st0" d="M909.1,970.1l187.5-124.5l-3-57c0,0-13.4-33.8-22.9-43.3c-9.5-9.5-17.2-20.4-31.3-28.7
	c-14.1-8.3-52.2-9.1-52.2-9.1l-70.5,42l-13.5-15l-139.5,79.5l10.5,28.5l-43.5,25.5l93,118.5l61.5-39L909.1,970.1z"/>
<path id="opera-right-10" class="st0" d="M371.1,420.6c65.4-32.7,245.5-119.2,313.5-151.8c13.1-6.3,16.3-23.5,6.3-34.1l-66.7-70.8
	c-6.4-6.8-16.3-8.7-24.7-4.7L283.6,307.1c-13.1,6.1-17.1,22.9-8.2,34.3c15.3,19.5,38.1,48.3,57.7,71.3
	C342.5,423.8,358.2,427,371.1,420.6z"/>
<path id="opera-right-16" class="st0" d="M1824.1,1130.6l12-54l-34.5-34.5l-16.5,9l-52.5-51l4.5-21l-33-33l-73.5,54l-3,45l28.5,31.5
	c0,0-2.8,25.4,11.9,43.4c17.1,21,49.6,19.6,49.6,19.6l36,36L1824.1,1130.6z"/>
<path id="opera-wrong-01" class="st0" d="M1440.1,944.6l85.5-61.5v-27l148.5-97.5l17.9,20.7l76.7-54l-1.6-29.7
	c0,0-52.9-45.4-72-61.5c-12.4,8.6-42,25.5-42,25.5l15,13.5l-220.5,135l-24-30l-63,39l1.5,43.5L1440.1,944.6z"/>
<path id="opera-wrong-02" class="st0" d="M445.6,622.1l141,174l7.5,52.5l-169.5,93L276.1,766.1c0,0-8.1-36.8-12-58.5
	C288.7,696.7,445.6,622.1,445.6,622.1z"/>
<path id="opera-wrong-03" class="st0" d="M559.6,1211.6l135-85.5c0,0-1.3-30.5-8.6-50.1c-17.3-25.3-94.9-119.4-94.9-119.4l-141,84
	l22.5,61.5L559.6,1211.6z"/>
<path id="opera-wrong-04" class="st0" d="M2131.5,293.6L2293,190.5l2.5-30.5l-57-37L2114,203.5c0,0-8-6.5-19-15.5
	c-14,10.5-30.9,26.1-30.9,26.1l0.4,28.4L2131.5,293.6z"/>
</svg>
