<?xml version="1.0" encoding="utf-8"?>
<!-- Generator: Adobe Illustrator 22.1.0, SVG Export Plug-In . SVG Version: 6.00 Build 0)  -->
<svg version="1.1" id="center-map" xmlns="http://www.w3.org/2000/svg" xmlns:xlink="http://www.w3.org/1999/xlink" x="0px" y="0px"
	 viewBox="0 0 2400 1700" style="enable-background:new 0 0 2400 1700;" xml:space="preserve">
<style type="text/css">
	.st0{fill:#FD7921;}
</style>
<path id="center-right-8" class="st0" d="M1358,1493l24-12l-3.5-5.5l40-19v-7l46-23l9,9l31-19l25,25l-4,25l14,14l-9,94l-26,12
	l-17-18c0,0-44.5,22.5-68,33c-25.5-32.5-62-81-62-81L1358,1493z"/>
<path id="center-right-9" class="st0" d="M970,438c14,0,59,3,86,3c0,26,8.5,308.5,8.5,308.5l-95.2-0.2l0.2-75.8h47l-1.2-166.2
	l-45.8,0.2C969.5,507.5,970,450.7,970,438z"/>
<path id="center-right-15" class="st0" d="M2148.3,336.3l6.7-25.3l-3.3-10.7l-38-31.3l3.3-11.3l-14-8.7c0,0,3.2-4-0.8-7.5
	s-5.6-5.1-8.2-8.2s-7,2.4-7,2.4l-10.7-10.7l-37.3,4l-14,44l18,19.3l21.3-3.3l48.7,53.3L2148.3,336.3z"/>
<path id="center-right-17" class="st0" d="M246,421l-4-39c0,0,2.4-9.6,1.7-16c-1-8.3,6.3-8,6.3-8s-0.7-12.3-1.3-16.7
	C248,337,254,330,254,330s7.3,5,8,9c5.3-7.3,15-14,15-14s12.7,8.7,16.3,15c3-7,7.3-9.7,7.3-9.7s7.7,4.7,7.7,9.3c0,4.7,0,17.3,0,17.3
	l8.7,6l2,32.7l-8.7,26.6L246,421z"/>
<path id="center-right-19" class="st0" d="M1707,291.7l-17.3-20l2-25.4l16.6-1.3l0.7-11.3l29.3-6.7c0,0,1.7-15,13.7-15.8
	c9.3-0.6,14.3,1.8,14.3,1.8s1.9-8.7,9.7-8c8.2,0.8,7.8,9,7.8,9l-2.1,13.7l12.6,12.6l1.4-12c0,0,2.6-8.6,7.3-6.3s5.3,11.7,5.3,11.7
	l-2.6,15.3l6,7.3l-5.4,32l-69.3,11.4l-10.7-11.4L1707,291.7z"/>
<path id="center-wrong-01" class="st0" d="M556.5,1579.5l-25-44v-29L649,1487l26.5,38.5c0,0,0,16.5,0,36
	C643,1566,556.5,1579.5,556.5,1579.5z"/>
<path id="center-wrong-02" class="st0" d="M926,421h40c0,0,1.3-110.3,1.3-119.7C952.7,296,879,282,879,282l-21,12v33l68.5,13.5
	L926,421z"/>
<path id="center-wrong-03" class="st0" d="M1998,1465l12-45l-68-42l3-11c0,0-10-6-24-11c-15,12-58,50-58,50l-4,28l104,67L1998,1465z
	"/>
</svg>
