<?xml version="1.0" encoding="utf-8"?>
<!-- Generator: Adobe Illustrator 22.1.0, SVG Export Plug-In . SVG Version: 6.00 Build 0)  -->
<svg version="1.1" id="botanic-map" xmlns="http://www.w3.org/2000/svg" xmlns:xlink="http://www.w3.org/1999/xlink" x="0px"
	 y="0px" viewBox="0 0 2400 1700" style="enable-background:new 0 0 2400 1700;" xml:space="preserve">
<style type="text/css">
	.st0{fill:#FD7921;}
</style>
<path id="right-1" class="st0" d="M2160.2,1375.2l90.6-12.4c8.5-1.2,17,1.9,22.8,8.2l107.3,128c17.1,20.3,8.2,51.5-17,59.8
	l-65.3,21.6c-8,2.6-15.7-4.6-13.6-12.8l1.9-7.2c3.2-12.1-3.1-24.7-14.8-29.4l-11.1-4.4l-71-75.7l-0.8-12.2
	c-0.5-7.1-4.6-13.5-10.9-17l0,0c-4.5-2.4-7.4-7-7.7-12.1l-1.1-17L2160.2,1375.2z"/>
<path id="right-2" class="st0" d="M970.9,1383.1l-46.5,1.6l-30.8-83.6l4.7-41.8c0,0,21.6-4.8,26.9-4.8s26,11.1,26,11.1l22.9,58.3
	L970.9,1383.1z"/>
<path id="right-3" class="st0" d="M864.4,1400.4l-21.3-69.4l-53.1,6l-3.5-16l-18,0.5L763,1303l-27.5,2.5l-4-14c0,0-6.5-10-25.5-8
	s-26,12.5-26,12.5l1.4,16.1l-43.9,3.9l-1.1,19.7l-66.2,7.1c0,0-18.2,17.7-18.7,39.2c-0.3,14.6,2.9,47.6,2.9,47.6l22.9,27.6l26-0.8
	l6.3,17.4l24.5-2.4l-0.8-9.5l37.1-6.3l4.7,15.8l32.3-3.2l-0.8-12.6l60.7-6.3l4.7,12.6l36.3-4.7v-20.5l56.7-7.2L864.4,1400.4
	L864.4,1400.4z"/>
<path id="right-4" class="st0" d="M2105.6,1140.7l3.1-35.8l-23.7-25.4l-55.5,4l-11-19l-14.5,1.5c0,0,0.5-7-9.5-7s-19.5,0.5-25.5,1.5
	s-5.5,11.5-5.5,11.5l-18.5,2.5l-3,17.5l-27,4l-6-8l-34,3.5l-3.5,44.5l21.6,27.8L2105.6,1140.7z"/>
<path id="right-12" class="st0" d="M2030.9,701.1c-18.6-4.1-48.4-11.5-48.4-11.5l1.1-22.1l27.3-18.9l2.1-10.6l51.6-36.8h10.5
	l18.9-6.3l21,6.3v29.5C2115,630.7,2044.8,689.5,2030.9,701.1z"/>
<path id="wrong-01" class="st0" d="M414.5,265c0,2.8,0.1,62.8,0.1,62.8l11.6,16.9l26.3,1l1-66.2c0,0-2.1-13.5-3.1-17.9
	c-3.6-2.7-15.4-9.5-18.9-9.5C428.2,252.1,414.5,262.2,414.5,265z"/>
<path id="wrong-02" class="st0" d="M400,735l-8.1-40.8l-2.9-23.7h-20l-10.6-83.8l12.8-1.1c0,0-7.7-40.3-9.7-51.6c13.5-1,63-4,63-4
	l0.5,8l131.6-9.3v-10.5L594,517l40.4,5.4l5.3,17.8l1.8,26.3L621,568l3,14.5l12.5-0.2l6.3,25.2l-11.6,3.2l12.7,34.7l26.3-2.1
	l7.3,14.7l-1,54.7L400,735z"/>
<path id="wrong-03" class="st0" d="M532,886l2.5,37l10.5,7.4l7.5,33.1l47-3l-0.9-17.5l88.3-8.4l26.3,99.9l48.4-4.2l2.1-52.6
	L748,925.1l106.2-6.3l11.6,28.4l58.9-5.2l-5.2-42.1l-23.1-48.4L725,865.1l-3-9.6c0,0-12.3-1.3-27.4,0.1s-22.1,7.4-22.1,7.4v10.5
	l-138,11.7L532,886z"/>
<path id="wrong-04" class="st0" d="M1030.8,1635.5l-23.6-63.1h-7.9l-28.4-71.8l-9.4-28.4l4.7-44.2l-1.6-11l182.2-18.9l8.7,19.7
	l13.5,42.2l7-1c0,0,10.5,23.5,13,30c1.6,4.3-2.8,9.2-2.8,9.2l14.2,30.8l9.5,5.5l7.1,17.4l-1.6,60.7L1030.8,1635.5z"/>
</svg>
