<?xml version="1.0" encoding="utf-8"?>
<!-- Generator: Adobe Illustrator 22.1.0, SVG Export Plug-In . SVG Version: 6.00 Build 0)  -->
<svg version="1.1" id="kreshyatik-map" xmlns="http://www.w3.org/2000/svg" xmlns:xlink="http://www.w3.org/1999/xlink" x="0px"
	 y="0px" viewBox="0 0 2400 1700" style="enable-background:new 0 0 2400 1700;" xml:space="preserve">
<style type="text/css">
	.st0{fill:#FD7921;}
</style>
<path id="kreshyatik-right-6" class="st0" d="M1279.6,970.1v46.9l-97.3,0.7c0,0-15.8-3.2-22.3-13.7s-9.7-20.3-9.7-20.3l-10-2l0.7-14
	l-5.3-1.4l-1.4-31l8.7-0.6c0,0-0.2-8.5,2-30.7c3-30,49.3-29.7,49.3-29.7h72V909h18.7v61.1H1279.6z"/>
<path id="kreshyatik-right-7" class="st0" d="M805,947l29,112l56-9l-3-16l29-7l9,14c0,0,16.5,0,41-11c29.6-13.3,46-23,46-23l6-219
	l-11-39l-292,41l-13,14l9,28l8,23l207-35l-2,16l3,27l37,1l-1,19l-56,2l4,45l34-2l-1,16l-37-1l1,58l-36,2l-13-62L805,947z"/>
<path id="kreshyatik-right-11" class="st0" d="M358.6,725.6l-21-69l3-78l27-6c0,0,20.5,20.5,39,18s375-70.5,375-70.5l28.5,82.5v45
	L358.6,725.6z"/>
<path id="kreshyatik-right-18" class="st0" d="M300.1,1247.6l13.5,42l294,82.5l52.5-115.5l-63-21l3-22.5l-43.5-9l-13.5,21l-39-15
	l-9.6-13.5c-5.5-7.8-13.4-13.5-22.4-16.4l-1.7-0.6c-11.1-3.5-23.1-2.5-33.4,2.9l-18.4,9.6l-28.5-10.5l-3-24l-43.5-10.5L300.1,1247.6
	z"/>
<path id="kreshyatik-wrong-01" class="st0" d="M1305.7,692.3h35.3c0,0,0.5,44.2,1.5,64.7c7.5,0.5,15.8,0,15.8,0v-64l28.2-1.5
	l5.2,78.8v25.4H1307l-0.7-26L1305.7,692.3z"/>
<path id="kreshyatik-wrong-02" class="st0" d="M1602,1686l-7-32l-14,2l-9-54l14.5-1.9l-5.5-28.1l-1-18h13l2-8c0,0,1-7.5,7-8
	s13,10,13,10l87-3l6,16l35-1l18,58l-1,29l-32,1l3,34L1602,1686z"/>
<path id="kreshyatik-wrong-03" class="st0" d="M2135,907l17.5-62.9l10.5-84c0,0-10-14.5-18.5-16.6S2114,747,2114,747l-6,12l-43-9
	l-12,47l1,35l27,4l-7,41l26,6l-3,17L2135,907z"/>
<path id="kreshyatik-wrong-04" class="st0" d="M600.1,310.1l-109.5,12l0.6,12.5c0.4,15.7,0.1,44.9-5.2,79.4
	c2.4,37.4,13.6,98.6,13.6,98.6l117-4.5l1.5-115.5L600.1,310.1z"/>
</svg>
