<?xml version="1.0" encoding="utf-8"?>
<!-- Generator: Adobe Illustrator 21.1.0, SVG Export Plug-In . SVG Version: 6.00 Build 0)  -->
<svg version="1.1" id="gulliver-map" xmlns="http://www.w3.org/2000/svg" xmlns:xlink="http://www.w3.org/1999/xlink" x="0px"
	 y="0px" viewBox="0 0 2400 1507.9" style="enable-background:new 0 0 2400 1507.9;" xml:space="preserve">
<style type="text/css">
	.st0{fill:#FD7921;}
</style>
<path id="gulliver-right-13" class="st0" d="M24.3,778.1c0.7,4.3,8,54,8,54l181.4-8.7l2.6-9.3l132-8l4,10l22-2l-5.3-42.7l-4.7-5.3l-56.6-17.4c0,0-4.8-2.6-10-2.6s-12.7,5.3-12.7,5.3l-227.3,14l-17.4,1.3C40.3,766.7,23.6,773.8,24.3,778.1z"/>
	<path id="gulliver-right-20" class="st0" d="M2056,1338.3c0,0,42.3,5.2,96.7-4.5c49.2-8.8,69.3-32.5,69.3-32.5l6.7-74.2c0,0-4-21-34.7-31.3c-23.5-7.9-43-13.5-43-13.5s-1.3-10.2-18-19.8c-16.7-9.6-29-12.2-29-12.2l-35-37l-140-28l-5,10l-19-7l-17,13v9l-38,40v23l-11,12v33l51,12l8-5l12,1l2,7l76.3,20.7l8.7,19.3l27.3,6.7l2-10.7l7.7,0.2l6-10l5.7,4.7l1.3,8.3l8,6.1v12.7l4,5.3L2056,1338.3z"/>
<path id="gulliver-wrong-01" class="st0" d="M1472,1317.3c0,0,0-25.2,1-35s14-13,14-13l1-10l12-9l25,5l8,13l45,9l13,3l1-87l11-30c0,0,2.3-2.8,12-4c9.7-1.2,17,0,17,0l1-45l-3.5-1l0.5-12l3.5-8l15-13l1-17l-8.5,2.5l1.5-51.5l10-7l1-10l-5-1l-1-10l22-10.5c0,0,32-92,30.5-90.5s30.5,93,30.5,93l14.5,2.5v8l-5.5,4l1,18l11,3l-2.5,51.5l-11.5,8l9,0.5v8l6.5,2l0.5,7l3.5,2.5l-0.5,9.5l-5,4.5l-2,63.5l27.5,1.5l20-25.5l26,33.5l14,1.5v11.5l-3,4.5l1.5,65l52.5,5.7v11.7c0,0,17.3,4,31.3,9.7s14.7,13.5,14.7,13.5l-1.5,31.5c0,0-65.5,77-67,78.5s-19.5,12.2-67.8,11.8c-48.3-0.3-122.2-15.8-122.2-15.8l-129.5-31l-50-16l-24.3-20.5L1472,1317.3z"/>
	<path id="gulliver-wrong-02" class="st0" d="M544.6,1450.9l-64.5,57l-63-1.5l-7.5-58.5l-75-13.5l-1.5-54l-48-7.5l1.5-18l-28.5-28.5l-37.5,25.5l-37.5,1.5l1.5-49.5l103.4-50.1c0,0-2-5.5,3.5-9c1.7-1.1,12.8-8.9,15.5-9c3.5-0.1,30,2.9,30,2.9l11.5,6.6l197.6,22.6L544.6,1450.9z"/>
<path id="gulliver-wrong-03" class="st0" d="M2019,1101.3l3.3-52.7l-5.3-6l5.3-4.6l43.4-16.7l126.6-32l30,14.7l17.4-4.7l29.3,12l-7.3,8l-3.4,86.7l-18,21.3l-30-8.7l-34.6,14l-1.4,26.7l-28,10.2c0,0-5.3-6-17.7-12.3c-11.4-5.9-24-9.3-24-9.3l-34.3-38L2019,1101.3z"/>
</svg>
